<?xml version="1.0" encoding="UTF-8" standalone="no"?>
<!-- Created with Inkscape (http://www.inkscape.org/) -->

<svg
   width="1024"
   height="1024"
   viewBox="-512 -512 1024 1024"
   version="1.1"
   id="svg1"
   xmlns="http://www.w3.org/2000/svg"
   xmlns:svg="http://www.w3.org/2000/svg">
  <defs
     id="defs1" />
  <g
     id="layer2">
    <rect
       style="fill:#808080;fill-opacity:0;stroke-width:4"
       id="rect2"
       width="1024"
       height="1024"
       x="-512"
       y="-512" />
    <path
       style="fill:#000000;fill-opacity:1;stroke-width:4"
       d="m 64,-256 c 0,256 32,384 128,512 48,64 80,64 128,0 96,-128 128,-256 128,-512 0,-64 -64,0 -192,0 -128,0 -192,-64 -192,0 z"
       id="path3" />
    <path
       style="fill:#000000;fill-opacity:1;stroke-width:4"
       d="m -64,-256 c 0,256 -32,384 -128,512 -48,64 -80,64 -128,0 -96,-128 -128,-256 -128,-512 0,-64 64,0 192,0 128,0 192,-64 192,0 z"
       id="path4" />
  </g>
</svg>
